<?xml version="1.0" encoding="UTF-8" standalone="no"?>
<!-- Created with Inkscape (http://www.inkscape.org/) -->

<svg
   width="210mm"
   height="297mm"
   viewBox="0 0 210 297"
   version="1.1"
   id="svg5"
   xml:space="preserve"
   inkscape:version="1.2.2 (732a01da63, 2022-12-09)"
   sodipodi:docname="cloudflare.svg"
   xmlns:inkscape="http://www.inkscape.org/namespaces/inkscape"
   xmlns:sodipodi="http://sodipodi.sourceforge.net/DTD/sodipodi-0.dtd"
   xmlns="http://www.w3.org/2000/svg"
   xmlns:svg="http://www.w3.org/2000/svg"><sodipodi:namedview
     id="namedview7"
     pagecolor="#505050"
     bordercolor="#eeeeee"
     borderopacity="1"
     inkscape:showpageshadow="0"
     inkscape:pageopacity="0"
     inkscape:pagecheckerboard="0"
     inkscape:deskcolor="#505050"
     inkscape:document-units="mm"
     showgrid="false"
     inkscape:zoom="0.76791526"
     inkscape:cx="511.1241"
     inkscape:cy="701.90036"
     inkscape:window-width="1920"
     inkscape:window-height="1017"
     inkscape:window-x="227"
     inkscape:window-y="1072"
     inkscape:window-maximized="1"
     inkscape:current-layer="layer1" /><defs
     id="defs2" /><g
     inkscape:label="Layer 1"
     inkscape:groupmode="layer"
     id="layer1"><g
       id="g257"><path
         style="fill:#e6e6e6;stroke-width:0.243632"
         d="m 31.12557,197.43303 c -0.0873,-0.27508 -0.155408,-1.61839 -0.151342,-2.98513 0.01177,-3.95213 0.577215,-6.19366 2.397448,-9.50379 1.350902,-2.45665 1.821519,-3.08468 3.635351,-4.85131 3.402219,-3.31369 6.589969,-4.83813 11.785539,-5.63604 1.004983,-0.15434 1.822284,-0.38988 1.816227,-0.52343 -0.0061,-0.13354 -0.09955,-1.07521 -0.207753,-2.09259 -0.29749,-2.79708 0.09725,-4.73393 1.567937,-7.6933 1.074758,-2.16267 1.483902,-2.71819 2.993276,-4.06419 0.961593,-0.85751 2.413402,-1.89305 3.226239,-2.3012 1.672026,-0.83957 4.573743,-1.51327 6.490787,-1.50698 2.618272,0.009 6.598452,1.23997 7.870447,2.43495 0.270462,0.25408 0.608518,0.38479 0.751237,0.29046 0.142716,-0.0943 0.569573,-1.02868 0.948573,-2.07634 0.378997,-1.04766 1.014638,-2.41809 1.412534,-3.0454 1.607722,-2.53469 2.983269,-4.5648 3.248993,-4.79504 0.154646,-0.134 0.799084,-0.83676 1.432084,-1.56169 1.369483,-1.56838 3.782356,-3.5982 5.968735,-5.02117 5.291003,-3.44358 10.64745,-4.98966 17.286838,-4.98966 6.69874,0 11.91447,1.50969 17.54458,5.07828 1.53399,0.9723 4.49985,3.53768 6.01868,5.20598 2.78224,3.05602 4.21003,5.34875 5.98171,9.60531 1.59162,3.82396 1.79831,4.87316 1.27557,6.47533 -0.231,0.70803 -0.50541,1.39696 -0.6098,1.53095 -0.10438,0.134 -0.72576,1.6713 -1.38083,3.41622 -1.97322,5.25604 -4.67845,8.37455 -9.26906,10.68507 -3.20042,1.61083 -2.30393,1.55483 -29.904177,1.86783 -27.282714,0.30939 -26.194549,0.24129 -26.186701,1.6389 0.008,1.41897 -1.293599,1.32251 20.98372,1.55516 11.303484,0.11805 22.908928,0.29975 25.789868,0.40379 5.17616,0.18693 5.25383,0.19768 6.5694,0.90909 1.48256,0.80171 2.77908,2.32184 3.16477,3.71056 0.41575,1.49699 0.27634,4.38585 -0.30833,6.38919 l -0.53327,1.82724 -45.725268,0.0615 -45.725272,0.0616 z"
         id="path248" /><path
         style="fill:#e6e6e6;stroke-width:0.243632"
         d="m 129.06787,197.59285 c 0.0954,-0.2353 0.38238,-1.02318 0.63771,-1.75082 0.25533,-0.72765 0.61457,-1.49509 0.79831,-1.70542 0.18374,-0.21034 0.51341,-0.73651 0.73259,-1.16926 0.21918,-0.43276 1.05489,-1.4885 1.85712,-2.3461 1.30596,-1.39607 2.19524,-2.08566 5.11209,-3.96415 1.64611,-1.06013 4.05832,-1.51107 9.57756,-1.79044 6.61748,-0.33496 7.64116,-0.44798 8.0859,-0.89272 0.50534,-0.50534 0.46813,-1.72184 -0.0611,-1.99613 -0.23449,-0.12155 -2.89313,-0.34959 -5.90807,-0.50676 -6.48577,-0.3381 -7.62069,-0.52888 -9.14238,-1.5368 -2.26356,-1.49932 -3.1923,-3.55238 -2.97902,-6.58535 0.12766,-1.81546 1.31268,-6.43075 2.15673,-8.39984 l 0.47611,-1.11072 2.58575,0.16717 c 3.10194,0.20055 4.44859,0.46283 7.02462,1.36818 5.49678,1.93184 9.51996,4.77092 12.75022,8.99759 2.36608,3.09593 4.34649,7.43581 5.03281,11.02893 0.62952,3.29576 0.47845,8.855 -0.31971,11.76481 l -0.20048,0.73089 -19.19513,0.0624 c -18.22382,0.0592 -19.18636,0.0407 -19.02167,-0.36545 z"
         id="path250" /><path
         style="fill:#e6e6e6;stroke-width:0.243632"
         d="m 124.56219,197.92938 c 0,-0.0486 0.23004,-1.00789 0.5112,-2.13178 0.66286,-2.64969 0.5725,-5.92314 -0.20483,-7.41995 -0.62401,-1.2016 -2.15969,-2.63158 -3.40725,-3.17272 -1.34706,-0.5843 -6.84307,-0.76079 -30.02572,-0.9642 -11.050765,-0.097 -20.64377,-0.24361 -21.317791,-0.32588 -1.017677,-0.12422 -1.238332,-0.23975 -1.301189,-0.68127 -0.04583,-0.32192 0.09835,-0.62362 0.365448,-0.76469 0.261702,-0.13823 10.598893,-0.35016 25.413411,-0.52101 26.181351,-0.30196 27.114271,-0.3473 29.218071,-1.42001 2.72229,-1.38807 3.69915,-2.04933 5.38429,-3.64474 1.02586,-0.97122 2.07195,-2.14979 2.32466,-2.61904 0.25271,-0.46925 0.54135,-0.85318 0.64144,-0.85318 0.29278,0 0.92421,-1.37668 1.94864,-4.24848 0.52633,-1.47546 1.04071,-2.79508 1.14306,-2.93248 0.10235,-0.1374 0.38384,-0.79799 0.62553,-1.46798 0.24169,-0.66998 0.52023,-1.30788 0.61897,-1.41755 0.16513,-0.18338 1.94908,0.40649 1.94908,0.64447 0,0.0575 -0.16088,0.48955 -0.35752,0.96017 -0.19664,0.47062 -0.75385,2.3752 -1.23825,4.2324 -0.75393,2.89059 -0.86541,3.65734 -0.77435,5.32579 0.0586,1.07398 0.30183,2.42278 0.54169,3.00418 0.51783,1.25517 2.826,3.28954 4.20218,3.70371 0.50341,0.1515 3.54651,0.43448 6.76245,0.62883 6.7699,0.40915 6.94351,0.43523 6.94351,1.04339 0,0.94004 -0.58498,1.06467 -6.52572,1.39025 -3.17773,0.17416 -6.27105,0.38631 -6.87404,0.47145 -1.58937,0.22441 -3.7305,0.98801 -4.79395,1.70969 -0.50801,0.34475 -1.2751,0.79359 -1.70463,0.99741 -0.86358,0.4098 -4.95212,4.52754 -4.95212,4.98749 0,0.1595 -0.25773,0.62925 -0.57274,1.04389 -0.31501,0.41464 -0.88798,1.60356 -1.27327,2.64204 l -0.70053,1.88815 h -1.28486 c -0.70668,0 -1.28487,-0.0398 -1.28487,-0.0883 z"
         id="path252" /></g></g></svg>
