<?xml version="1.0" encoding="UTF-8" standalone="no"?>
<!-- Created with Inkscape (http://www.inkscape.org/) -->

<svg
   width="210mm"
   height="297mm"
   viewBox="0 0 210 297"
   version="1.1"
   id="svg5"
   xml:space="preserve"
   inkscape:version="1.2.2 (732a01da63, 2022-12-09)"
   sodipodi:docname="gitbranch.svg"
   xmlns:inkscape="http://www.inkscape.org/namespaces/inkscape"
   xmlns:sodipodi="http://sodipodi.sourceforge.net/DTD/sodipodi-0.dtd"
   xmlns="http://www.w3.org/2000/svg"
   xmlns:svg="http://www.w3.org/2000/svg"><sodipodi:namedview
     id="namedview7"
     pagecolor="#505050"
     bordercolor="#eeeeee"
     borderopacity="1"
     inkscape:showpageshadow="0"
     inkscape:pageopacity="0"
     inkscape:pagecheckerboard="0"
     inkscape:deskcolor="#505050"
     inkscape:document-units="mm"
     showgrid="false"
     inkscape:zoom="0.76791526"
     inkscape:cx="522.19303"
     inkscape:cy="653.71796"
     inkscape:window-width="1920"
     inkscape:window-height="1017"
     inkscape:window-x="227"
     inkscape:window-y="1072"
     inkscape:window-maximized="1"
     inkscape:current-layer="layer1" /><defs
     id="defs2" /><g
     inkscape:label="Layer 1"
     inkscape:groupmode="layer"
     id="layer1"><path
       style="fill:#e6e6e6;stroke-width:0.344548"
       d="m 87.874334,189.28481 c -3.91329,-0.65632 -8.13865,-3.56495 -10.13352,-6.97567 -3.60718,-6.16734 -2.07619,-14.05489 3.61407,-18.61934 l 1.68108,-1.34848 v -24.18839 -24.18838 l -1.33655,-0.88449 c -1.77722,-1.17611 -3.59769,-3.44694 -4.76982,-5.94984 -0.85657,-1.82905 -0.95686,-2.42426 -0.95686,-5.67883 0,-3.509423 0.045,-3.726743 1.29753,-6.260983 2.66238,-5.386972 7.99832,-8.512772 13.83521,-8.104692 4.668983,0.32642 8.549123,2.55664 11.130856,6.397762 1.90619,2.83603 2.33587,4.3761 2.32419,8.330333 -0.008,2.79463 -0.14041,3.55027 -0.90385,5.16821 -1.25534,2.66042 -2.82261,4.67845 -4.614173,5.94126 l -1.53553,1.08235 v 17.5056 c 0,9.62808 0.0508,17.50559 0.11287,17.50559 0.0621,0 1.03254,-0.37369 2.15658,-0.83043 3.355233,-1.36335 6.245303,-1.96679 10.809513,-2.257 3.08296,-0.19603 4.88728,-0.49081 6.29855,-1.02901 5.83959,-2.22697 10.25358,-8.32238 10.25358,-14.15946 0,-1.98096 -0.0217,-2.02512 -1.51927,-3.10064 -5.22633,-3.75327 -7.1772,-11.426 -4.40916,-17.34116 4.80558,-10.26929 18.74332,-11.63617 25.06449,-2.4581 3.21057,4.6616 3.39827,11.10065 0.45857,15.73152 -1.02541,1.61533 -4.14239,4.77143 -4.71228,4.77143 -0.16899,0 -0.40027,1.51171 -0.51396,3.35934 -0.23695,3.85103 -1.12472,7.03828 -2.99902,10.76711 -5.04793,10.04261 -16.1676,17.57193 -25.95109,17.57193 -4.09642,0 -8.63414,1.58934 -10.70295,3.74871 l -0.9875,1.03072 1.375,2.05908 c 7.00382,10.48831 -1.97028,24.48299 -14.366556,22.40395 z m 5.77019,-7.50244 c 2.594213,-1.33038 3.999483,-3.69134 4.019023,-6.7522 0.0164,-2.56495 -1.2175,-4.89265 -3.337253,-6.29571 -1.23879,-0.81996 -1.75963,-0.93979 -4.08452,-0.93979 -2.40065,0 -2.81283,0.10262 -4.16001,1.03577 -1.7325,1.20005 -3.39035,4.11597 -3.39035,5.96313 0,2.84107 1.66141,5.67028 4.08014,6.94808 1.71765,0.90742 5.14337,0.92772 6.87297,0.0407 z m 42.702736,-58.31782 c 2.17719,-0.54822 4.70305,-2.9991 5.2652,-5.10889 1.96246,-7.36527 -6.97344,-12.79121 -12.37248,-7.51265 -3.19838,3.12701 -3.21158,7.46588 -0.0324,10.64507 2.15074,2.15074 4.19745,2.71733 7.13967,1.97647 z M 93.200114,108.40196 c 5.033303,-2.30892 6.127973,-8.24531 2.237793,-12.135503 -3.067023,-3.067022 -7.189243,-3.069182 -10.351543,-0.005 -1.85214,1.79442 -2.57356,3.729563 -2.29889,6.166513 0.54199,4.80847 6.05669,7.97262 10.41264,5.97442 z"
       id="path248" /><path
       style="fill:#e6e6e6;stroke-width:0.115102"
       d=""
       id="path319"
       transform="scale(0.26458333)" /></g></svg>
