<?xml version="1.0" encoding="UTF-8"?>
<svg xmlns="http://www.w3.org/2000/svg" xmlns:xlink="http://www.w3.org/1999/xlink" viewBox="0 0 96 96" width="96px" height="96px">
<g id="surface41991036">
<path style=" stroke:none;fill-rule:nonzero;fill:rgb(100%,100%,100%);fill-opacity:1;" d="M 42 82 L 42 71 C 42 70.398438 42.398438 70 43 70 C 43.601562 70 44 70.398438 44 71 L 44 82 L 48 82 L 48 69 C 48 68.398438 48.398438 68 49 68 C 49.601562 68 50 68.398438 50 69 L 50 82 L 54 82 L 54 71 C 54 70.398438 54.398438 70 55 70 C 55.601562 70 56 70.398438 56 71 L 56 82 L 59.601562 82 C 60 81.398438 60 80.800781 60 79.800781 L 60 72 C 60 67.601562 56.199219 61.601562 51.398438 61.601562 L 46.398438 61.601562 C 41.800781 61.601562 37.800781 67.800781 37.800781 72 L 37.800781 79.800781 C 37.800781 80.601562 38 81.398438 38.199219 82 Z M 80.199219 52.800781 C 80.199219 52.800781 77.601562 52 75.398438 52 L 75.199219 52 C 73 52 69.398438 52.601562 69.398438 52.601562 C 69.199219 52.601562 69.199219 52.601562 69.199219 52.398438 C 69.199219 52.199219 69.199219 52.199219 69.398438 52.199219 C 69.601562 52.199219 73.398438 51.601562 75.601562 51.601562 C 77.800781 51.601562 80.398438 52.398438 80.601562 52.398438 C 80.800781 52.398438 80.800781 52.601562 80.800781 52.800781 C 80.398438 52.601562 80.398438 52.800781 80.199219 52.800781 Z M 79.601562 54.398438 C 79.601562 54.398438 76.800781 53.601562 74.398438 53.601562 C 72.601562 53.601562 68.398438 54 68.199219 54 C 68 54 68 54 68 53.800781 C 68 53.601562 68 53.601562 68.199219 53.601562 C 68.398438 53.601562 72.601562 53.199219 74.398438 53.199219 C 77 53.199219 79.601562 54 79.601562 54 C 79.800781 54 79.800781 54.199219 79.800781 54.398438 C 79.800781 54.199219 79.800781 54.398438 79.601562 54.398438 Z M 15.601562 52.800781 C 15.398438 52.800781 15.398438 52.800781 15.398438 52.601562 C 15.398438 52.398438 15.398438 52.398438 15.601562 52.199219 C 17.199219 51.800781 20.398438 51.199219 22.199219 51.199219 C 23.800781 51.199219 29.199219 51.601562 29.398438 51.601562 C 29.601562 51.601562 29.601562 51.800781 29.601562 51.800781 C 29.601562 52 29.398438 52 29.398438 52 C 29.398438 52 24 51.601562 22.398438 51.601562 C 20.199219 52 17.199219 52.398438 15.601562 52.800781 Z M 16.398438 55.800781 C 16.398438 55.800781 16.199219 55.800781 16.199219 55.601562 C 16.199219 55.398438 16.199219 55.398438 16.199219 55.199219 C 16.398438 55.199219 19 53.601562 22 53.199219 C 24.601562 52.800781 30 53.398438 30.398438 53.398438 C 30.601562 53.398438 30.601562 53.601562 30.601562 53.601562 C 30.601562 53.800781 30.398438 53.800781 30.398438 53.800781 C 30.398438 53.800781 24.800781 53.199219 22.199219 53.601562 C 19.199219 54.199219 16.398438 55.800781 16.398438 55.800781 Z M 16.398438 55.800781 "/>
<path style=" stroke:none;fill-rule:nonzero;fill:rgb(100%,100%,100%);fill-opacity:1;" d="M 28.398438 47 C 28.398438 38.199219 37.601562 30 49 30 C 60.398438 30 69.601562 38 69.601562 47 C 69.601562 56 63 62 49 62 C 35 62 28.398438 55.800781 28.398438 47 Z M 28.398438 47 "/>
<path style=" stroke:none;fill-rule:nonzero;fill:rgb(100%,100%,100%);fill-opacity:1;" d="M 57.199219 32.601562 C 57.199219 32.601562 60.601562 28 66.800781 28 C 69.199219 30.398438 67.601562 37.601562 66.800781 39.601562 Z M 40.800781 32.601562 C 40.800781 32.601562 37.398438 28 31.199219 28 C 28.800781 30.398438 30.398438 37.601562 31.199219 39.601562 Z M 40.199219 71.800781 C 40.199219 71.800781 35.601562 71.800781 34.601562 71.800781 C 32.199219 71.800781 30 70.800781 29 68.800781 C 27.800781 66.601562 26.800781 64.199219 23.800781 62.199219 C 23.199219 61.800781 23.601562 61.398438 24.601562 61.398438 C 25.601562 61.601562 27.398438 61.800781 28.800781 63.601562 C 30.199219 65.398438 31.800781 67.601562 34.398438 67.601562 C 37 67.601562 39.800781 67.601562 41.398438 65.800781 Z M 40.199219 71.800781 "/>
<path style=" stroke:none;fill-rule:nonzero;fill:rgb(100%,100%,100%);fill-opacity:1;" d="M 48 8 C 26 8 8 26 8 48 C 8 70 26 88 48 88 C 70 88 88 70 88 48 C 88 26 70 8 48 8 Z M 48 80 C 30.398438 80 16 65.601562 16 48 C 16 30.398438 30.398438 16 48 16 C 65.601562 16 80 30.398438 80 48 C 80 65.601562 65.601562 80 48 80 Z M 48 80 "/>
</g>
</svg>
