<?xml version="1.0" encoding="UTF-8" standalone="no"?>
<!-- Created with Inkscape (http://www.inkscape.org/) -->

<svg
   width="210mm"
   height="297mm"
   viewBox="0 0 210 297"
   version="1.1"
   id="svg5"
   xml:space="preserve"
   inkscape:version="1.2.2 (732a01da63, 2022-12-09)"
   sodipodi:docname="website.svg"
   xmlns:inkscape="http://www.inkscape.org/namespaces/inkscape"
   xmlns:sodipodi="http://sodipodi.sourceforge.net/DTD/sodipodi-0.dtd"
   xmlns="http://www.w3.org/2000/svg"
   xmlns:svg="http://www.w3.org/2000/svg"><sodipodi:namedview
     id="namedview7"
     pagecolor="#505050"
     bordercolor="#eeeeee"
     borderopacity="1"
     inkscape:showpageshadow="0"
     inkscape:pageopacity="0"
     inkscape:pagecheckerboard="0"
     inkscape:deskcolor="#505050"
     inkscape:document-units="mm"
     showgrid="false"
     inkscape:zoom="0.76791526"
     inkscape:cx="511.1241"
     inkscape:cy="701.90036"
     inkscape:window-width="1920"
     inkscape:window-height="1017"
     inkscape:window-x="227"
     inkscape:window-y="1072"
     inkscape:window-maximized="1"
     inkscape:current-layer="layer1" /><defs
     id="defs2" /><g
     inkscape:label="Layer 1"
     inkscape:groupmode="layer"
     id="layer1"><path
       style="fill:#e6e6e6;stroke-width:0.344548"
       d="m 97.679232,225.66061 c -11.207723,-1.50884 -20.784981,-5.25357 -31.355807,-12.26017 -5.433256,-3.60129 -10.727616,-8.5724 -15.54566,-14.5965 -3.536892,-4.42225 -4.493469,-5.84179 -6.625656,-9.8323 -3.69547,-6.9163 -6.191263,-14.03866 -7.722608,-22.03835 -0.656606,-3.43008 -0.757997,-5.11929 -0.754854,-12.57599 0.0039,-9.38317 0.255879,-11.5004 2.275322,-19.12239 1.677344,-6.33081 5.143206,-14.28852 8.467704,-19.44206 2.452515,-3.80183 6.794576,-9.00692 11.099916,-13.30616 4.659431,-4.652827 10.616485,-8.827127 17.824619,-12.490297 5.50985,-2.80009 8.663739,-3.98825 14.268955,-5.37548 16.199237,-4.00916 34.229787,-2.22653 48.149847,4.76043 10.67226,5.35679 18.14919,11.243087 24.98272,19.667957 1.46021,1.80026 2.86547,3.50577 3.1228,3.79002 2.20254,2.43301 7.11095,12.09942 9.09762,17.91648 5.55198,16.25635 5.12373,35.04242 -1.148,50.3597 -3.21149,7.84333 -6.01782,12.57858 -10.88489,18.36655 -5.32817,6.33631 -9.73197,10.4547 -14.80143,13.84217 -4.94782,3.30619 -12.21261,7.14723 -16.54146,8.7458 -3.8061,1.40553 -10.57052,3.0057 -15.23508,3.60395 -4.9309,0.63242 -13.92504,0.62598 -18.674058,-0.0134 z m -2.257623,-7.3036 c -0.0099,-0.14212 -0.962644,-1.03364 -2.117138,-1.98115 -2.465348,-2.02333 -8.084965,-8.24932 -10.199486,-11.30002 -3.595105,-5.18679 -6.60355,-9.84241 -7.336909,-11.35398 l -0.79402,-1.6366 H 64.361738 c -5.836775,0 -10.610829,0.11629 -10.609006,0.25841 0.0074,0.5809 3.783714,5.25094 6.198828,7.66598 3.399205,3.3991 9.175014,8.09491 12.410402,10.08983 3.411302,2.10338 9.787673,5.09361 13.368885,6.2694 5.299925,1.74009 9.737056,2.6504 9.690762,1.98813 z m 27.113861,-0.28221 c 6.80792,-1.57886 15.31848,-5.2074 20.62511,-8.79367 4.01677,-2.71457 11.02995,-8.8263 13.57455,-11.82972 2.16789,-2.55877 3.82403,-4.80027 3.82403,-5.1756 0,-0.1048 -4.78289,-0.19055 -10.62864,-0.19055 h -10.62865 l -0.65529,1.45441 c -0.87138,1.93402 -7.28728,11.5333 -9.73508,14.56534 -1.07015,1.32556 -3.78335,4.23268 -6.02934,6.46026 -4.44301,4.40661 -4.44837,4.46077 -0.34669,3.50953 z M 104.05336,204.48897 V 192.08526 H 93.200114 c -7.399581,0 -10.853248,0.11595 -10.853248,0.36438 0,1.35203 5.053238,8.69331 9.23081,13.4104 4.056208,4.58005 11.164474,11.03264 12.153714,11.03264 0.19364,0 0.32197,-4.94397 0.32197,-12.40371 z m 8.57381,11.11166 c 5.7025,-4.65866 11.92184,-11.30561 15.39578,-16.4543 2.42511,-3.59423 3.93877,-6.16585 3.93877,-6.69174 0,-0.25493 -3.36193,-0.36933 -10.85325,-0.36933 h -10.85325 v 12.40371 c 0,9.09927 0.10528,12.40371 0.3952,12.40371 0.21736,0 1.1069,-0.58142 1.97675,-1.29205 z M 71.888033,185.10817 c -0.09891,-0.23687 -0.8015,-2.32462 -1.561322,-4.63943 -1.73998,-5.3009 -2.981087,-11.39422 -3.493823,-17.1532 -0.219332,-2.46352 -0.464958,-4.82797 -0.545836,-5.25435 l -0.14705,-0.77523 H 53.915128 41.690254 v 1.55273 c 0,2.04071 0.885269,7.90581 1.715838,11.3678 1.00048,4.17021 2.494153,8.29443 4.3448,11.99652 l 1.667566,3.33585 h 11.324703 c 8.925975,0 11.286612,-0.0912 11.144872,-0.43069 z m 32.083057,-13.60962 -0.09,-14.04032 H 88.204175 72.527261 l 0.09585,2.06729 c 0.344733,7.4355 2.450338,17.22153 4.879612,22.67849 0.521253,1.17091 1.044324,2.40026 1.162386,2.73189 0.199126,0.55933 1.125686,0.60296 12.80532,0.60296 h 12.590661 z m 32.53087,11.4562 c 2.97017,-7.23955 4.25043,-12.94526 5.27719,-23.51886 l 0.20945,-2.15691 -15.78055,0.0896 -15.78056,0.0896 -0.09,14.04456 -0.09,14.04456 12.63249,-0.0904 12.63249,-0.0904 z m 30.01639,-0.63737 c 3.10756,-6.21819 5.41274,-14.76818 5.98345,-22.19284 l 0.21887,-2.8474 -12.36875,0.0906 -12.36874,0.0905 -0.24714,3.2732 c -0.60405,8.00026 -2.65131,17.35358 -5.32132,24.31151 -0.16322,0.42534 1.42391,0.49592 11.15169,0.49592 H 164.9084 Z M 66.580187,147.69065 c 0.4602,-6.44062 2.376646,-15.96425 4.239813,-21.06942 0.311216,-0.85276 0.69556,-1.97685 0.854093,-2.49798 l 0.288245,-0.9475 H 60.679624 49.396913 l -1.938613,4.04843 c -3.127941,6.53212 -5.155425,14.12012 -5.655585,21.16641 l -0.216273,3.04688 12.369482,-0.0905 12.369482,-0.0905 z m 37.390913,-10.47884 0.09,-14.04456 -12.600257,0.0904 -12.600249,0.0904 -1.019461,2.41184 c -2.089139,4.94247 -3.298687,9.1491 -4.259971,14.81554 -0.637175,3.75592 -1.251969,10.18823 -1.011042,10.57806 0.09592,0.1552 7.180127,0.24185 15.742682,0.19255 l 15.568278,-0.0896 z m 37.70753,11.97728 c -0.35951,-7.23763 -2.67002,-17.95226 -4.90369,-22.74014 -0.35363,-0.758 -0.80221,-1.80457 -0.99683,-2.3257 l -0.35386,-0.9475 h -12.58452 -12.58451 v 13.89675 c 0,7.64321 0.10493,14.00168 0.23317,14.12992 0.12824,0.12824 7.22161,0.19285 15.76305,0.14356 l 15.52988,-0.0896 z m 30.9397,0.68683 c 0,-1.83349 -0.84659,-7.68027 -1.57118,-10.85098 -0.88887,-3.88957 -2.5915,-8.66461 -4.39206,-12.31758 l -1.74076,-3.53161 h -11.30809 c -6.21945,0 -11.30741,0.0388 -11.30658,0.0861 7.9e-4,0.0474 0.55276,1.71413 1.22651,3.70389 2.2094,6.52498 3.77771,14.43189 4.18343,21.0914 l 0.2054,3.37148 h 12.35166 12.35167 z M 75.767814,114.99275 c 0.43657,-0.90014 1.647034,-2.9545 2.689923,-4.56526 1.871872,-2.89114 2.459186,-3.71691 6.490108,-9.12515 1.127728,-1.513048 3.962077,-4.652737 6.298552,-6.977077 4.778441,-4.75362 4.780983,-4.7385 -0.56795,-3.37709 -6.841511,1.7413 -12.693086,4.18969 -18.058722,7.556049 -4.377426,2.746368 -11.965011,9.165408 -14.907046,12.611238 -2.261184,2.64839 -3.96326,4.93457 -3.96326,5.32333 0,0.10481 4.775544,0.19055 10.612319,0.19055 h 10.612318 z m 28.285546,-10.76712 c 0,-7.459727 -0.12833,-12.403707 -0.32197,-12.403707 -1.07261,0 -8.405293,6.677899 -12.426288,11.316657 -3.789267,4.37143 -8.958236,11.93416 -8.958236,13.10681 0,0.27412 3.104859,0.38395 10.853248,0.38395 h 10.853246 z m 27.90836,12.01976 c 0,-1.18703 -5.46102,-9.16073 -8.74044,-12.76203 -5.28582,-5.804617 -11.63508,-11.661437 -12.64195,-11.661437 -0.19645,0 -0.32411,4.88578 -0.32411,12.403707 v 12.40371 h 10.85325 c 7.74839,0 10.85325,-0.10983 10.85325,-0.38395 z m 28.59744,0.1934 c 0,-0.38876 -1.70207,-2.67494 -3.96326,-5.32333 -2.40744,-2.8197 -10.07043,-9.51389 -13.53241,-11.821578 -5.04856,-3.365259 -14.01393,-7.146509 -20.51207,-8.651209 -4.14385,-0.95954 -4.13923,-0.90898 0.32175,3.51718 2.25093,2.23336 4.97805,5.150309 6.06025,6.482117 2.45593,3.02234 8.83449,12.55952 9.71316,14.52305 l 0.65529,1.46432 h 10.62865 c 5.84575,0 10.62864,-0.0857 10.62864,-0.19055 z"
       id="path303" /></g></svg>
